<svg width="190" height="34" viewBox="0 0 190 34" fill="none" xmlns="http://www.w3.org/2000/svg">
<path d="M9.688 6.176C10.9013 6.176 11.956 6.35333 12.852 6.708C13.748 7.044 14.6253 7.56667 15.484 8.276L13.44 10.656C12.32 9.74133 11.144 9.284 9.912 9.284C8.53067 9.284 7.42933 9.85333 6.608 10.992C5.80533 12.112 5.404 13.876 5.404 16.284C5.404 18.636 5.80533 20.3813 6.608 21.52C7.42933 22.64 8.54 23.2 9.94 23.2C10.668 23.2 11.3307 23.0693 11.928 22.808C12.5253 22.528 13.1507 22.136 13.804 21.632L15.708 24.012C15.0173 24.7213 14.1587 25.3093 13.132 25.776C12.124 26.224 11.004 26.448 9.772 26.448C8.036 26.448 6.51467 26.056 5.208 25.272C3.90133 24.488 2.884 23.34 2.156 21.828C1.428 20.2973 1.064 18.4493 1.064 16.284C1.064 14.1747 1.43733 12.364 2.184 10.852C2.93067 9.32133 3.95733 8.164 5.264 7.38C6.57067 6.57733 8.04533 6.176 9.688 6.176ZM24.0132 10.712C26.2346 10.712 27.9706 11.412 29.2212 12.812C30.4719 14.1933 31.0972 16.116 31.0972 18.58C31.0972 20.148 30.8079 21.5293 30.2292 22.724C29.6692 23.9 28.8479 24.8147 27.7652 25.468C26.7012 26.1213 25.4412 26.448 23.9852 26.448C21.7639 26.448 20.0186 25.7573 18.7492 24.376C17.4986 22.976 16.8732 21.044 16.8732 18.58C16.8732 17.012 17.1532 15.64 17.7132 14.464C18.2919 13.2693 19.1132 12.3453 20.1772 11.692C21.2599 11.0387 22.5386 10.712 24.0132 10.712ZM24.0132 13.68C23.0052 13.68 22.2492 14.0813 21.7452 14.884C21.2599 15.668 21.0172 16.9 21.0172 18.58C21.0172 20.26 21.2599 21.5013 21.7452 22.304C22.2492 23.088 22.9959 23.48 23.9852 23.48C24.9746 23.48 25.7119 23.088 26.1972 22.304C26.7012 21.5013 26.9532 20.26 26.9532 18.58C26.9532 16.9 26.7106 15.668 26.2252 14.884C25.7399 14.0813 25.0026 13.68 24.0132 13.68ZM50.4688 10.712C51.6448 10.712 52.5875 11.1133 53.2968 11.916C54.0248 12.7187 54.3888 13.8107 54.3888 15.192V26H50.4128V15.864C50.4128 14.408 49.9275 13.68 48.9568 13.68C48.4341 13.68 47.9768 13.8573 47.5848 14.212C47.1928 14.548 46.8008 15.0613 46.4088 15.752V26H42.4328V15.864C42.4328 14.408 41.9474 13.68 40.9768 13.68C40.4541 13.68 39.9874 13.8573 39.5768 14.212C39.1848 14.548 38.7928 15.0613 38.4008 15.752V26H34.4248V11.16H37.8968L38.1768 13.036C39.3154 11.4867 40.7528 10.712 42.4888 10.712C43.3288 10.712 44.0568 10.9267 44.6728 11.356C45.2888 11.7667 45.7461 12.364 46.0448 13.148C46.6421 12.3453 47.2955 11.7387 48.0048 11.328C48.7141 10.9173 49.5354 10.712 50.4688 10.712ZM66.3904 10.712C68.2571 10.712 69.6478 11.4027 70.5624 12.784C71.4771 14.1467 71.9344 16.0693 71.9344 18.552C71.9344 20.064 71.7011 21.4173 71.2344 22.612C70.7678 23.8067 70.0864 24.7493 69.1904 25.44C68.3131 26.112 67.2678 26.448 66.0544 26.448C64.5238 26.448 63.2918 25.916 62.3584 24.852V31.712L58.3824 32.16V11.16H61.8824L62.1064 12.868C62.6664 12.14 63.3198 11.5987 64.0664 11.244C64.8131 10.8893 65.5878 10.712 66.3904 10.712ZM64.8784 23.48C66.8198 23.48 67.7904 21.8467 67.7904 18.58C67.7904 16.788 67.5664 15.5187 67.1184 14.772C66.6891 14.0253 66.0451 13.652 65.1864 13.652C64.0851 13.652 63.1424 14.296 62.3584 15.584V22.024C62.9931 22.9947 63.8331 23.48 64.8784 23.48ZM86.4627 21.884C86.4627 22.4627 86.5467 22.892 86.7147 23.172C86.8827 23.4333 87.1627 23.6293 87.5547 23.76L86.7147 26.392C85.8373 26.3173 85.1187 26.112 84.5587 25.776C84.0173 25.44 83.5973 24.9173 83.2987 24.208C82.328 25.7013 80.844 26.448 78.8467 26.448C77.372 26.448 76.196 26.028 75.3187 25.188C74.46 24.3293 74.0307 23.2187 74.0307 21.856C74.0307 20.232 74.6187 18.9907 75.7947 18.132C76.9707 17.2733 78.66 16.844 80.8627 16.844H82.5707V16.116C82.5707 15.2013 82.3653 14.5667 81.9547 14.212C81.544 13.8573 80.8627 13.68 79.9107 13.68C78.8653 13.68 77.5587 13.9413 75.9907 14.464L75.0947 11.804C76.9427 11.076 78.772 10.712 80.5827 10.712C82.5987 10.712 84.0827 11.1507 85.0347 12.028C85.9867 12.8867 86.4627 14.1747 86.4627 15.892V21.884ZM79.9387 23.592C81.0587 23.592 81.936 23.0413 82.5707 21.94V19.112H81.2547C79.108 19.112 78.0347 19.9147 78.0347 21.52C78.0347 22.1733 78.1933 22.6867 78.5107 23.06C78.8467 23.4147 79.3227 23.592 79.9387 23.592ZM99.0272 10.712C100.334 10.712 101.351 11.1133 102.079 11.916C102.826 12.7 103.199 13.792 103.199 15.192V26H99.2232V15.864C99.2232 15.0613 99.0832 14.5013 98.8032 14.184C98.5232 13.848 98.1218 13.68 97.5992 13.68C97.0392 13.68 96.5258 13.8573 96.0592 14.212C95.5925 14.548 95.1445 15.0613 94.7152 15.752V26H90.7392V11.16H94.2112L94.5192 13.036C95.7512 11.4867 97.2538 10.712 99.0272 10.712ZM114.741 26.028C114.143 27.9133 113.201 29.3693 111.913 30.396C110.643 31.4227 108.917 32.0107 106.733 32.16L106.313 29.304C107.731 29.1173 108.767 28.7813 109.421 28.296C110.093 27.8107 110.643 27.0453 111.073 26H109.701L105.081 11.16H109.309L112.277 23.424L115.413 11.16H119.529L114.741 26.028ZM133.181 22.696H140.853L140.405 26H129.065V6.624H133.181V22.696ZM149.12 10.712C151.341 10.712 153.077 11.412 154.328 12.812C155.578 14.1933 156.204 16.116 156.204 18.58C156.204 20.148 155.914 21.5293 155.336 22.724C154.776 23.9 153.954 24.8147 152.872 25.468C151.808 26.1213 150.548 26.448 149.092 26.448C146.87 26.448 145.125 25.7573 143.856 24.376C142.605 22.976 141.98 21.044 141.98 18.58C141.98 17.012 142.26 15.64 142.82 14.464C143.398 13.2693 144.22 12.3453 145.284 11.692C146.366 11.0387 147.645 10.712 149.12 10.712ZM149.12 13.68C148.112 13.68 147.356 14.0813 146.852 14.884C146.366 15.668 146.124 16.9 146.124 18.58C146.124 20.26 146.366 21.5013 146.852 22.304C147.356 23.088 148.102 23.48 149.092 23.48C150.081 23.48 150.818 23.088 151.304 22.304C151.808 21.5013 152.06 20.26 152.06 18.58C152.06 16.9 151.817 15.668 151.332 14.884C150.846 14.0813 150.109 13.68 149.12 13.68ZM172.859 11.972C171.889 12.3453 170.461 12.532 168.575 12.532C169.509 12.9427 170.199 13.456 170.647 14.072C171.095 14.6693 171.319 15.4253 171.319 16.34C171.319 17.292 171.067 18.1507 170.563 18.916C170.078 19.6627 169.369 20.2507 168.435 20.68C167.521 21.1093 166.447 21.324 165.215 21.324C164.562 21.324 163.983 21.2587 163.479 21.128C163.106 21.3707 162.919 21.6973 162.919 22.108C162.919 22.4067 163.031 22.6493 163.255 22.836C163.498 23.004 163.955 23.088 164.627 23.088H166.895C167.997 23.088 168.958 23.2747 169.779 23.648C170.619 24.0027 171.263 24.5067 171.711 25.16C172.178 25.7947 172.411 26.5227 172.411 27.344C172.411 28.856 171.758 30.032 170.451 30.872C169.163 31.7307 167.297 32.16 164.851 32.16C163.097 32.16 161.706 31.9733 160.679 31.6C159.671 31.2453 158.962 30.7227 158.551 30.032C158.141 29.3413 157.935 28.4733 157.935 27.428H161.491C161.491 27.9133 161.585 28.296 161.771 28.576C161.958 28.8747 162.294 29.0893 162.779 29.22C163.283 29.3693 164.002 29.444 164.935 29.444C166.223 29.444 167.119 29.2853 167.623 28.968C168.146 28.6507 168.407 28.2027 168.407 27.624C168.407 27.1013 168.211 26.7 167.819 26.42C167.427 26.14 166.849 26 166.083 26H163.899C162.425 26 161.323 25.7293 160.595 25.188C159.867 24.628 159.503 23.928 159.503 23.088C159.503 22.5653 159.653 22.0613 159.951 21.576C160.269 21.072 160.698 20.652 161.239 20.316C160.325 19.812 159.653 19.224 159.223 18.552C158.813 17.8613 158.607 17.04 158.607 16.088C158.607 15.0053 158.869 14.0627 159.391 13.26C159.933 12.4387 160.679 11.8133 161.631 11.384C162.602 10.936 163.703 10.712 164.935 10.712C166.466 10.7493 167.726 10.6187 168.715 10.32C169.705 10.0213 170.759 9.55467 171.879 8.92L172.859 11.972ZM165.019 13.372C164.273 13.372 163.675 13.6147 163.227 14.1C162.798 14.5667 162.583 15.2107 162.583 16.032C162.583 16.872 162.798 17.5347 163.227 18.02C163.675 18.5053 164.282 18.748 165.047 18.748C165.85 18.748 166.457 18.5147 166.867 18.048C167.278 17.5813 167.483 16.8907 167.483 15.976C167.483 14.24 166.662 13.372 165.019 13.372ZM181.23 10.712C183.452 10.712 185.188 11.412 186.438 12.812C187.689 14.1933 188.314 16.116 188.314 18.58C188.314 20.148 188.025 21.5293 187.446 22.724C186.886 23.9 186.065 24.8147 184.982 25.468C183.918 26.1213 182.658 26.448 181.202 26.448C178.981 26.448 177.236 25.7573 175.966 24.376C174.716 22.976 174.09 21.044 174.09 18.58C174.09 17.012 174.37 15.64 174.93 14.464C175.509 13.2693 176.33 12.3453 177.394 11.692C178.477 11.0387 179.756 10.712 181.23 10.712ZM181.23 13.68C180.222 13.68 179.466 14.0813 178.962 14.884C178.477 15.668 178.234 16.9 178.234 18.58C178.234 20.26 178.477 21.5013 178.962 22.304C179.466 23.088 180.213 23.48 181.202 23.48C182.192 23.48 182.929 23.088 183.414 22.304C183.918 21.5013 184.17 20.26 184.17 18.58C184.17 16.9 183.928 15.668 183.442 14.884C182.957 14.0813 182.22 13.68 181.23 13.68Z" fill="#FF3B30"/>
</svg>
